<?xml version="1.0" encoding="utf-8"?>
<!-- Generator: Adobe Illustrator 26.0.2, SVG Export Plug-In . SVG Version: 6.00 Build 0)  -->
<svg version="1.1" id="Layer_1" xmlns="http://www.w3.org/2000/svg" xmlns:xlink="http://www.w3.org/1999/xlink" x="0px" y="0px"
	 viewBox="0 0 500 500" style="enable-background:new 0 0 500 500;" xml:space="preserve">
<style type="text/css">
	.st0{fill:#FFFFFF;}
</style>
<path d="M350,500H150C67.16,500,0,432.84,0,350V150C0,67.16,67.16,0,150,0h200c82.84,0,150,67.16,150,150v200
	C500,432.84,432.84,500,350,500z"/>
<g>
	<path class="st0" d="M96.18,276.99c0-13.06-1.63-22.49-4.9-28.31c-3.27-5.81-9.35-8.72-18.27-8.72c-3.19,0-6.69,0.24-10.51,0.72
		s-6.69,0.87-8.6,1.2v100.8H25V221.82c5.58-1.59,12.86-3.11,21.86-4.54c8.99-1.44,18.51-2.16,28.54-2.16
		c8.6,0,15.65,1.12,21.14,3.34c5.49,2.24,10.07,5.18,13.73,8.84c1.75-1.27,3.98-2.63,6.69-4.06c2.71-1.43,5.73-2.75,9.08-3.95
		c3.34-1.19,6.88-2.19,10.63-2.98c3.73-0.79,7.52-1.2,11.34-1.2c9.71,0,17.71,1.4,24.01,4.18c6.29,2.79,11.23,6.7,14.81,11.71
		c3.58,5.01,6.05,11.07,7.4,18.15c1.35,7.09,2.03,14.85,2.03,23.3v70.22h-28.89v-65.68c0-13.06-1.59-22.49-4.78-28.31
		c-3.19-5.81-9.31-8.72-18.39-8.72c-4.63,0-9,0.76-13.14,2.27c-4.14,1.52-7.25,2.98-9.31,4.41c1.27,3.98,2.15,8.2,2.62,12.66
		c0.48,4.46,0.72,9.23,0.72,14.34v69.02h-28.9V276.99z"/>
	<path class="st0" d="M231.61,342.68V162.11l28.9-4.78v61.86c3.19-1.11,6.89-2.07,11.11-2.87c4.22-0.79,8.4-1.2,12.54-1.2
		c10.03,0,18.35,1.4,24.96,4.18c6.61,2.79,11.91,6.7,15.89,11.71c3.98,5.01,6.8,11.02,8.47,18.03c1.67,7.01,2.51,14.81,2.51,23.41
		v70.22h-28.9v-65.68c0-6.7-0.44-12.38-1.31-17.09c-0.87-4.69-2.3-8.51-4.3-11.46c-1.99-2.94-4.66-5.09-8-6.45
		c-3.35-1.35-7.49-2.03-12.42-2.03c-3.83,0-7.73,0.4-11.71,1.2c-3.98,0.8-6.92,1.52-8.83,2.15v99.37H231.61z"/>
	<path class="st0" d="M370.62,221.82c5.58-1.59,12.82-3.11,21.74-4.54c8.91-1.44,18.79-2.16,29.61-2.16c10.2,0,18.71,1.4,25.56,4.18
		c6.84,2.79,12.29,6.7,16.36,11.71c4.06,5.01,6.93,11.07,8.6,18.15c1.67,7.09,2.51,14.85,2.51,23.3v70.22h-28.9v-65.68
		c0-6.7-0.44-12.38-1.31-17.09c-0.87-4.69-2.3-8.51-4.3-11.46c-1.99-2.94-4.7-5.09-8.13-6.45c-3.42-1.35-7.6-2.03-12.54-2.03
		c-3.66,0-7.48,0.24-11.47,0.72c-3.98,0.48-6.92,0.87-8.83,1.2v100.8h-28.9V221.82z"/>
</g>
</svg>
