<?xml version="1.0" encoding="utf-8"?>
<!-- Generator: Adobe Illustrator 26.0.2, SVG Export Plug-In . SVG Version: 6.00 Build 0)  -->
<svg version="1.1" id="Layer_1" xmlns="http://www.w3.org/2000/svg" xmlns:xlink="http://www.w3.org/1999/xlink" x="0px" y="0px"
	 viewBox="0 0 200 200" style="enable-background:new 0 0 200 200;" xml:space="preserve">
<style type="text/css">
	.st0{fill:url(#SVGID_1_);}
</style>
<linearGradient id="SVGID_1_" gradientUnits="userSpaceOnUse" x1="1.192093e-07" y1="99.999" x2="200" y2="99.999">
	<stop  offset="0" style="stop-color:#8913FF"/>
	<stop  offset="1" style="stop-color:#7213F7"/>
</linearGradient>
<path class="st0" d="M98.1,93.7H83V68.4h17.9c9.8,0,15.3,4.4,15.3,12.2C116.2,89,109.7,93.7,98.1,93.7L98.1,93.7z M100.8,103.7H83
	v27.9h18.6c12.2,0,18.6-4.9,18.6-14S113.5,103.7,100.8,103.7z M200,94.9v10.2c-9.4,0.9-15.1,7.9-18.6,18.9
	c-3.4,11-3.9,24.5-3.5,34.9c0.4,10.8-8.1,20.8-19.5,20.8H41.5c-11.4,0-19.9-10-19.5-20.8c0.4-10.4-0.1-23.9-3.5-34.9
	c-3.4-11-9.2-18-18.6-18.9V94.9C9.4,94,15.2,87.1,18.6,76c3.4-11,3.9-24.5,3.5-34.9c-0.4-10.8,8.1-20.8,19.5-20.8h116.9
	c11.4,0,19.8,10,19.5,20.8c-0.4,10.4,0.1,23.9,3.5,34.9C184.9,87.1,190.6,94,200,94.9z M133.9,118.4c0-11.3-7.9-19.4-19.7-20.7v-0.5
	c8.7-1.4,15.5-9.5,15.5-18.4c0-12.8-10.1-21.2-25.5-21.2H69.5v84.8h34.8C122.8,142.4,133.9,133.3,133.9,118.4z"/>
</svg>
