<?xml version="1.0" encoding="utf-8"?>
<!-- Generator: Adobe Illustrator 26.0.2, SVG Export Plug-In . SVG Version: 6.00 Build 0)  -->
<svg version="1.1" id="Layer_1" xmlns="http://www.w3.org/2000/svg" xmlns:xlink="http://www.w3.org/1999/xlink" x="0px" y="0px"
	 viewBox="0 0 504.1 504.1" style="enable-background:new 0 0 504.1 504.1;" xml:space="preserve">
<style type="text/css">
	.st0{fill:#092E20;}
	.st1{fill:#FFFFFF;}
</style>
<path class="st0" d="M504.1,332c0,15.5-12.5,28-28,28H28c-15.5,0-28-12.5-28-28V172c0-15.5,12.5-28,28-28h448.1
	c15.5,0,28,12.5,28,28V332z"/>
<g>
	<g>
		<path class="st1" d="M86.9,178h23.9v110.5c-12.2,2.3-21.2,3.3-31,3.3c-29.1,0-44.3-13.2-44.3-38.4c0-24.3,16.1-40.1,41.1-40.1
			c3.9,0,6.8,0.3,10.4,1.2L86.9,178L86.9,178z M86.9,233.6c-2.8-0.9-5.1-1.2-8.1-1.2c-12.1,0-19.1,7.4-19.1,20.5
			c0,12.7,6.7,19.7,18.9,19.7c2.6,0,4.8-0.2,8.2-0.6C86.9,271.9,86.9,233.6,86.9,233.6z"/>
		<path class="st1" d="M148.8,214.8v55.3c0,19.1-1.4,28.2-5.6,36.1c-3.9,7.6-9,12.4-19.5,17.7l-22.2-10.5c10.5-5,15.7-9.3,18.9-16
			c3.4-6.8,4.5-14.7,4.5-35.5v-47.1H148.8z M124.9,178.1h23.9v24.5h-23.9V178.1z"/>
		<path class="st1" d="M163.2,220.3c10.5-5,20.6-7.1,31.6-7.1c12.2,0,20.3,3.3,23.9,9.6c2,3.6,2.6,8.2,2.6,18.1v48.5
			c-10.7,1.6-24.2,2.6-34.1,2.6c-20,0-29-7-29-22.5c0-16.7,11.9-24.5,41.2-27v-5.3c0-4.3-2.2-5.9-8.2-5.9c-8.8,0-18.8,2.5-28.1,7.3
			L163.2,220.3L163.2,220.3z M200.6,258.2c-15.8,1.6-20.9,4-20.9,10.2c0,4.6,2.9,6.8,9.5,6.8c3.6,0,6.8-0.3,11.5-1.1L200.6,258.2
			L200.6,258.2z"/>
		<path class="st1" d="M233,218.6c14.1-3.7,25.7-5.4,37.5-5.4c12.2,0,21.1,2.8,26.4,8.2c5,5.1,6.5,10.7,6.5,22.6v46.8h-23.9v-45.9
			c0-9.1-3.1-12.6-11.6-12.6c-3.3,0-6.2,0.3-11,1.7v56.7H233L233,218.6L233,218.6z"/>
		<path class="st1" d="M312.6,303.8c8.4,4.3,16.7,6.4,25.6,6.4c15.7,0,22.3-6.4,22.3-21.5c0-0.2,0-0.3,0-0.5
			c-4.6,2.3-9.3,3.3-15.5,3.3c-20.9,0-34.3-13.8-34.3-35.7c0-27.1,19.7-42.5,54.6-42.5c10.2,0,19.7,1.1,31.2,3.4l-8.2,17.2
			c-6.4-1.2-0.5-0.2-5.3-0.6v2.5l0.3,10.1l0.2,13c0.2,3.3,0.2,6.5,0.3,9.8c0,2.9,0,4.3,0,6.5c0,20.5-1.7,30.1-6.8,38
			c-7.4,11.6-20.3,17.4-38.6,17.4c-9.3,0-17.4-1.4-25.7-4.7L312.6,303.8L312.6,303.8z M360.1,232.5c-0.3,0-0.6,0-0.8,0h-1.7
			c-4.6-0.2-10.1,1.1-13.8,3.4c-5.7,3.3-8.7,9.1-8.7,17.5c0,11.9,5.9,18.8,16.4,18.8c3.3,0,5.9-0.6,9-1.6v-1.7v-6.5
			c0-2.8-0.2-5.9-0.2-9.1l-0.2-11l-0.2-7.9L360.1,232.5L360.1,232.5z"/>
		<path class="st1" d="M433.5,212.8c23.9,0,38.4,15,38.4,39.4c0,25-15.2,40.6-39.4,40.6c-23.9,0-38.6-15-38.6-39.2
			C394,228.5,409.2,212.8,433.5,212.8z M433.1,273.6c9.1,0,14.6-7.6,14.6-20.8c0-13-5.3-20.8-14.4-20.8c-9.5,0-14.9,7.6-14.9,20.8
			C418.4,266,423.8,273.6,433.1,273.6z"/>
	</g>
</g>
</svg>
