<?xml version="1.0" encoding="utf-8"?>
<!-- Generator: Adobe Illustrator 26.0.2, SVG Export Plug-In . SVG Version: 6.00 Build 0)  -->
<svg version="1.1" id="Layer_1" xmlns="http://www.w3.org/2000/svg" xmlns:xlink="http://www.w3.org/1999/xlink" x="0px" y="0px"
	 viewBox="0 0 512 512" style="enable-background:new 0 0 512 512;" xml:space="preserve">
<style type="text/css">
	.st0{fill:#E44D26;}
	.st1{fill:#F16529;}
	.st2{fill:#EBEBEB;}
	.st3{fill:#FFFFFF;}
</style>
<g>
	<polygon class="st0" points="71.4,460.8 30.3,0 481.7,0 440.6,460.7 255.7,512 	"/>
	<polygon class="st1" points="256,472.8 405.4,431.4 440.5,37.7 256,37.7 	"/>
	<polygon class="st2" points="256,208.6 181.2,208.6 176,150.7 256,150.7 256,94.2 255.8,94.2 114.3,94.2 115.6,109.4 129.5,265.1 
		256,265.1 	"/>
	<polygon class="st2" points="256,355.4 255.8,355.4 192.8,338.4 188.8,293.4 158.2,293.4 132,293.4 140,382.1 255.7,414.2 
		256,414.2 	"/>
	<polygon class="st3" points="255.8,208.6 255.8,265.1 325.4,265.1 318.8,338.4 255.8,355.4 255.8,414.2 371.7,382.1 372.5,372.6 
		385.8,223.8 387.2,208.6 371.9,208.6 	"/>
	<polygon class="st3" points="255.8,94.2 255.8,129.3 255.8,150.6 255.8,150.7 392.1,150.7 392.1,150.7 392.3,150.7 393.5,138 
		396,109.4 397.4,94.2 	"/>
</g>
</svg>
