<?xml version="1.0" encoding="utf-8"?>
<!-- Generator: Adobe Illustrator 26.0.2, SVG Export Plug-In . SVG Version: 6.00 Build 0)  -->
<svg version="1.1" id="Layer_1" xmlns="http://www.w3.org/2000/svg" xmlns:xlink="http://www.w3.org/1999/xlink" x="0px" y="0px"
	 viewBox="0 0 512 512" style="enable-background:new 0 0 512 512;" xml:space="preserve">
<style type="text/css">
	.st0{fill:#539E43;}
	.st1{fill:#FFFFFF;}
	.st2{fill:url(#path-2_00000071543253620434356500000015573957576999876008_);}
	.st3{filter:url(#Adobe_OpacityMaskFilter);}
	.st4{mask:url(#mask-3_00000080911263107850762710000000210427551421192624_);}
	.st5{fill:none;}
	.st6{fill:url(#SVGID_1_);}
	.st7{filter:url(#Adobe_OpacityMaskFilter_00000009553764492453092410000010114607747028541111_);}
	.st8{mask:url(#mask-3_00000086668078213290001840000006149586829161298306_);}
	.st9{fill-rule:evenodd;clip-rule:evenodd;fill:url(#SVGID_00000052821373124749528690000015745059685151436168_);}
	.st10{fill-rule:evenodd;clip-rule:evenodd;fill:url(#SVGID_00000128459968396389598820000009809461781123111101_);}
	.st11{fill-rule:evenodd;clip-rule:evenodd;fill:url(#SVGID_00000024689519855682654330000014309277859272003725_);}
	.st12{fill-rule:evenodd;clip-rule:evenodd;fill:url(#SVGID_00000181060352501667585000000008516739168335239348_);}
	.st13{fill-rule:evenodd;clip-rule:evenodd;fill:url(#SVGID_00000167354510614387830690000000457126862713830023_);}
</style>
<g>
	<path class="st0" d="M253.1,412.1c-1.7,0-3.4-0.5-4.9-1.3l-15.4-9.1c-2.3-1.3-1.2-1.7-0.5-2c3.1-1,3.7-1.3,6.9-3.1
		c0.3-0.2,0.8-0.1,1.2,0.1l11.8,7.1c0.5,0.2,1,0.2,1.4,0l46.1-26.7c0.5-0.2,0.7-0.7,0.7-1.3v-53.3c0-0.6-0.2-1-0.7-1.3l-46.1-26.6
		c-0.5-0.2-1-0.2-1.4,0l-46.1,26.6c-0.5,0.2-0.7,0.8-0.7,1.3v53.3c0,0.5,0.2,1,0.7,1.3l12.6,7.3c6.8,3.5,11.1-0.6,11.1-4.6v-52.6
		c0-0.7,0.6-1.4,1.4-1.4h5.9c0.7,0,1.4,0.6,1.4,1.4v52.6c0,9.1-5,14.4-13.6,14.4c-2.7,0-4.7,0-10.6-2.9l-12.1-6.9
		c-3-1.7-4.9-5-4.9-8.4v-53.3c0-3.5,1.8-6.7,4.9-8.4l46.1-26.7c2.9-1.6,6.8-1.6,9.7,0l46.1,26.7c3,1.7,4.9,5,4.9,8.4v53.3
		c0,3.5-1.8,6.7-4.9,8.4L258,411.1C256.5,411.7,254.7,412.1,253.1,412.1z M267.3,375.5c-20.2,0-24.4-9.2-24.4-17.1
		c0-0.7,0.6-1.4,1.4-1.4h6c0.7,0,1.3,0.5,1.3,1.2c0.9,6.1,3.6,9.1,15.8,9.1c9.7,0,13.9-2.2,13.9-7.4c0-3-1.2-5.2-16.3-6.7
		c-12.6-1.3-20.5-4-20.5-14.1c0-9.4,7.9-14.9,21-14.9c14.8,0,22.1,5.1,23,16.2c0,0.3-0.1,0.7-0.3,1c-0.2,0.2-0.6,0.5-0.9,0.5h-6
		c-0.6,0-1.2-0.5-1.3-1c-1.4-6.4-5-8.4-14.4-8.4c-10.6,0-11.9,3.7-11.9,6.5c0,3.4,1.5,4.4,15.8,6.2c14.2,1.8,20.9,4.5,20.9,14.4
		C290.3,369.7,282,375.5,267.3,375.5z"/>
	<path class="st1" d="M110,203.7c0-2.1-1.2-4-3-5.1l-49-28.2c-0.8-0.5-1.7-0.7-2.7-0.8h-0.5c-0.9,0-1.8,0.3-2.7,0.8l-49,28.2
		c-1.8,1-3,3-3,5.1l0.1,75.8c0,1,0.6,2.1,1.5,2.5c0.9,0.6,2.1,0.6,2.9,0l29.1-16.6c1.8-1,3-3,3-5.1v-35.5c0-2.1,1.2-4,3-5.1
		l12.4-7.2c0.9-0.6,2-0.8,3-0.8s2.1,0.2,2.9,0.8l12.4,7.2c1.8,1,3,3,3,5.1v35.5c0,2.1,1.2,4,3,5.1l29.1,16.6c0.9,0.6,2.1,0.6,3,0
		c0.9-0.5,1.5-1.5,1.5-2.5L110,203.7L110,203.7z"/>
	<path class="st1" d="M345.6,99.3c-0.9-0.5-2.1-0.5-2.9,0c-0.9,0.6-1.5,1.5-1.5,2.5V177c0,0.7-0.3,1.4-1,1.8c-0.7,0.3-1.4,0.3-2.1,0
		l-12.3-7.1c-1.8-1-4-1-5.9,0l-49,28.3c-1.8,1-3,3-3,5.1v56.5c0,2.1,1.2,4,3,5.1l49,28.3c1.8,1,4,1,5.9,0l49-28.3c1.8-1,3-3,3-5.1
		V120.8c0-2.2-1.2-4.2-3-5.2L345.6,99.3L345.6,99.3z M341.1,243.1c0,0.6-0.2,1-0.7,1.3l-16.8,9.7c-0.5,0.2-1,0.2-1.5,0l-16.8-9.7
		c-0.5-0.2-0.7-0.8-0.7-1.3v-19.4c0-0.6,0.2-1,0.7-1.3l16.8-9.7c0.5-0.2,1-0.2,1.5,0l16.8,9.7c0.5,0.2,0.7,0.8,0.7,1.3V243.1
		L341.1,243.1z"/>
	<g transform="translate(401.047404, 70.501129)">
		<path class="st1" d="M107.6,152.7c1.8-1,2.9-3,2.9-5.1v-13.8c0-2.1-1.2-4-2.9-5.1l-48.7-28.2c-1.8-1-4-1-5.9,0L4,128.9
			c-1.8,1-3,3-3,5.1v56.5c0,2.1,1.2,4,3,5.1l48.7,27.7c1.8,1,4,1,5.8,0L88,206.9c0.9-0.5,1.5-1.5,1.5-2.5s-0.6-2.1-1.5-2.5
			l-49.2-28.3c-0.9-0.6-1.5-1.5-1.5-2.5v-17.7c0-1,0.6-2.1,1.5-2.5l15.4-8.8c0.9-0.6,2.1-0.6,3,0l15.4,8.8c0.9,0.6,1.5,1.5,1.5,2.5
			v13.9c0,1,0.6,2.1,1.5,2.5c0.9,0.6,2.1,0.6,3,0L107.6,152.7L107.6,152.7z"/>
		<path class="st0" d="M55.2,150.1c0.3-0.2,0.8-0.2,1.2,0l9.4,5.4c0.3,0.2,0.6,0.6,0.6,1v10.9c0,0.5-0.2,0.8-0.6,1l-9.4,5.4
			c-0.3,0.2-0.8,0.2-1.2,0l-9.4-5.4c-0.3-0.2-0.6-0.6-0.6-1v-10.9c0-0.5,0.2-0.8,0.6-1L55.2,150.1L55.2,150.1z"/>
	</g>
	<g transform="translate(134.067720, 70.501129)">
		<g>
			
				<linearGradient id="path-2_00000110461232479681161600000001324012178877060020_" gradientUnits="userSpaceOnUse" x1="-663.4772" y1="382.994" x2="-663.8809" y2="382.2713" gradientTransform="matrix(108.9878 0 0 -124.186 72385.6875 47684.2578)">
				<stop  offset="0" style="stop-color:#41873F"/>
				<stop  offset="0.3288" style="stop-color:#418B3D"/>
				<stop  offset="0.6352" style="stop-color:#419637"/>
				<stop  offset="0.9319" style="stop-color:#3FA92D"/>
				<stop  offset="1" style="stop-color:#3FAE2A"/>
			</linearGradient>
			
				<path id="path-2_00000045585529308423411850000011834201509758427280_" style="fill:url(#path-2_00000110461232479681161600000001324012178877060020_);" d="
				M57.9,100.8c-1.8-1-4-1-5.9,0L3.4,128.9c-1.8,1-2.9,3-2.9,5.1v56.3c0,2.1,1.2,4,2.9,5.1L52,223.5c1.8,1,4,1,5.9,0l48.7-28.1
				c1.8-1,2.9-3,2.9-5.1V134c0-2.1-1.2-4-2.9-5.1L57.9,100.8L57.9,100.8z"/>
		</g>
		<defs>
			<filter id="Adobe_OpacityMaskFilter" filterUnits="userSpaceOnUse" x="0" y="100.1" width="109.8" height="124.4">
				<feColorMatrix  type="matrix" values="1 0 0 0 0  0 1 0 0 0  0 0 1 0 0  0 0 0 1 0"/>
			</filter>
		</defs>
		
			<mask maskUnits="userSpaceOnUse" x="0" y="100.1" width="109.8" height="124.4" id="mask-3_00000080911263107850762710000000210427551421192624_">
			<g class="st3">
				<path id="path-2_00000103256468496244694900000007909710625140219580_" class="st1" d="M57.9,100.8c-1.8-1-4-1-5.9,0L3.4,128.9
					c-1.8,1-2.9,3-2.9,5.1v56.3c0,2.1,1.2,4,2.9,5.1L52,223.5c1.8,1,4,1,5.9,0l48.7-28.1c1.8-1,2.9-3,2.9-5.1V134
					c0-2.1-1.2-4-2.9-5.1L57.9,100.8L57.9,100.8z"/>
			</g>
		</mask>
		<g class="st4">
			<path class="st5" d="M51.9,100.8L3.1,128.9c-1.8,1-3.1,3-3.1,5.1v56.3c0,1.4,0.6,2.7,1.5,3.7l54.8-93.8
				C54.9,99.9,53.3,100,51.9,100.8L51.9,100.8z"/>
			<path class="st5" d="M56.6,224.1c0.5-0.1,0.9-0.3,1.4-0.6l48.8-28.1c1.8-1,3-3,3-5.1V134c0-1.5-0.7-3-1.7-4L56.6,224.1
				L56.6,224.1z"/>
			
				<linearGradient id="SVGID_1_" gradientUnits="userSpaceOnUse" x1="-663.6089" y1="382.6169" x2="-662.4492" y2="383.3517" gradientTransform="matrix(106.4452 0 0 -124.1327 70685.5156 47664.0156)">
				<stop  offset="0.1376" style="stop-color:#41873F"/>
				<stop  offset="0.4032" style="stop-color:#54A044"/>
				<stop  offset="0.7136" style="stop-color:#66B848"/>
				<stop  offset="0.9081" style="stop-color:#6CC04A"/>
			</linearGradient>
			<path class="st6" d="M106.7,128.9l-48.9-28.1c-0.5-0.2-1-0.5-1.5-0.6L1.5,194.1c0.5,0.6,1,1,1.6,1.4L52,223.6
				c1.4,0.8,3,1,4.5,0.6l51.4-94.1C107.6,129.6,107.1,129.3,106.7,128.9L106.7,128.9z"/>
		</g>
		<defs>
			
				<filter id="Adobe_OpacityMaskFilter_00000182523995047140058430000002102064300487742863_" filterUnits="userSpaceOnUse" x="0" y="90.6" width="111.3" height="135.3">
				<feColorMatrix  type="matrix" values="1 0 0 0 0  0 1 0 0 0  0 0 1 0 0  0 0 0 1 0"/>
			</filter>
		</defs>
		
			<mask maskUnits="userSpaceOnUse" x="0" y="90.6" width="111.3" height="135.3" id="mask-3_00000086668078213290001840000006149586829161298306_">
			<g style="filter:url(#Adobe_OpacityMaskFilter_00000182523995047140058430000002102064300487742863_);">
				<path id="path-2_00000153682718862937130180000011760693132065958016_" class="st1" d="M57.9,100.8c-1.8-1-4-1-5.9,0L3.4,128.9
					c-1.8,1-2.9,3-2.9,5.1v56.3c0,2.1,1.2,4,2.9,5.1L52,223.5c1.8,1,4,1,5.9,0l48.7-28.1c1.8-1,2.9-3,2.9-5.1V134
					c0-2.1-1.2-4-2.9-5.1L57.9,100.8L57.9,100.8z"/>
			</g>
		</mask>
		<g class="st8">
			<g transform="translate(0.000000, -9.246050)">
				<path class="st5" d="M109.8,199.6v-56.3c0-2.1-1.3-4-3.1-5.1l-48.9-28.1c-0.6-0.3-1.2-0.6-1.8-0.7l53.5,91.4
					C109.7,200.5,109.8,200,109.8,199.6L109.8,199.6z"/>
				<path class="st5" d="M3.1,138.2c-1.8,1-3.1,3-3.1,5.1v56.3c0,2.1,1.4,4,3.1,5.1L52,232.7c1.2,0.7,2.4,0.9,3.8,0.7L3.5,138.1
					L3.1,138.2L3.1,138.2z"/>
				
					<linearGradient id="SVGID_00000083063691034775065990000013485395956430163614_" gradientUnits="userSpaceOnUse" x1="-134.5808" y1="273.9962" x2="-37.1638" y2="273.9962" gradientTransform="matrix(0.9246 0 0 -0.3467 133.3218 194.9843)">
					<stop  offset="9.191646e-02" style="stop-color:#6CC04A"/>
					<stop  offset="0.2864" style="stop-color:#66B848"/>
					<stop  offset="0.5968" style="stop-color:#54A044"/>
					<stop  offset="0.8624" style="stop-color:#41873F"/>
				</linearGradient>
				<path style="fill-rule:evenodd;clip-rule:evenodd;fill:url(#SVGID_00000083063691034775065990000013485395956430163614_);" d="
					M50.4,99.8l-0.7,0.3h0.9L50.4,99.8z"/>
				
					<linearGradient id="SVGID_00000045589925363650874330000007444268320395215768_" gradientUnits="userSpaceOnUse" x1="-664.0801" y1="391.9149" x2="-663.0212" y2="391.9149" gradientTransform="matrix(106.3296 0 0 -124.2334 70610.0391 48860.3281)">
					<stop  offset="9.191646e-02" style="stop-color:#6CC04A"/>
					<stop  offset="0.2864" style="stop-color:#66B848"/>
					<stop  offset="0.5968" style="stop-color:#54A044"/>
					<stop  offset="0.8624" style="stop-color:#41873F"/>
				</linearGradient>
				<path style="fill-rule:evenodd;clip-rule:evenodd;fill:url(#SVGID_00000045589925363650874330000007444268320395215768_);" d="
					M106.8,204.6c1.4-0.8,2.4-2.2,2.9-3.7l-53.6-91.5c-1.4-0.2-2.9-0.1-4.2,0.7l-48.5,28l52.4,95.5c0.7-0.1,1.5-0.3,2.2-0.7
					L106.8,204.6L106.8,204.6z"/>
				
					<linearGradient id="SVGID_00000008841382358879414010000007829978872711205760_" gradientUnits="userSpaceOnUse" x1="776.8021" y1="341.5669" x2="874.2191" y2="341.5669" gradientTransform="matrix(0.3467 0 0 -0.809 -192.0646 479.8755)">
					<stop  offset="9.191646e-02" style="stop-color:#6CC04A"/>
					<stop  offset="0.2864" style="stop-color:#66B848"/>
					<stop  offset="0.5968" style="stop-color:#54A044"/>
					<stop  offset="0.8624" style="stop-color:#41873F"/>
				</linearGradient>
				<path style="fill-rule:evenodd;clip-rule:evenodd;fill:url(#SVGID_00000008841382358879414010000007829978872711205760_);" d="
					M111.3,203.7l-0.3-0.6v0.8L111.3,203.7z"/>
				
					<linearGradient id="SVGID_00000094614484115894293560000014742944655828061335_" gradientUnits="userSpaceOnUse" x1="-660.3815" y1="391.0505" x2="-658.335" y2="391.0505" gradientTransform="matrix(55.014 0 0 -34.326 36328.9102 13641.1709)">
					<stop  offset="9.191646e-02" style="stop-color:#6CC04A"/>
					<stop  offset="0.2864" style="stop-color:#66B848"/>
					<stop  offset="0.5968" style="stop-color:#54A044"/>
					<stop  offset="0.8624" style="stop-color:#41873F"/>
				</linearGradient>
				<path style="fill-rule:evenodd;clip-rule:evenodd;fill:url(#SVGID_00000094614484115894293560000014742944655828061335_);" d="
					M106.8,204.6L58,232.7c-0.7,0.3-1.4,0.6-2.2,0.7l0.9,1.7l54.1-31.3v-0.7l-1.4-2.3C109.2,202.4,108.2,203.8,106.8,204.6
					L106.8,204.6z"/>
				
					<linearGradient id="SVGID_00000090271200999822688490000014750104411798353078_" gradientUnits="userSpaceOnUse" x1="-658.0386" y1="393.6617" x2="-659.3008" y2="389.535" gradientTransform="matrix(55.014 0 0 -34.326 36328.9102 13641.1709)">
					<stop  offset="0" style="stop-color:#41873F"/>
					<stop  offset="0.3288" style="stop-color:#418B3D"/>
					<stop  offset="0.6352" style="stop-color:#419637"/>
					<stop  offset="0.9319" style="stop-color:#3FA92D"/>
					<stop  offset="1" style="stop-color:#3FAE2A"/>
				</linearGradient>
				<path style="fill-rule:evenodd;clip-rule:evenodd;fill:url(#SVGID_00000090271200999822688490000014750104411798353078_);" d="
					M106.8,204.6L58,232.7c-0.7,0.3-1.4,0.6-2.2,0.7l0.9,1.7l54.1-31.3v-0.7l-1.4-2.3C109.2,202.4,108.2,203.8,106.8,204.6
					L106.8,204.6z"/>
			</g>
		</g>
	</g>
</g>
</svg>
