<?xml version="1.0" encoding="utf-8"?>
<!-- Generator: Adobe Illustrator 26.0.2, SVG Export Plug-In . SVG Version: 6.00 Build 0)  -->
<svg version="1.1" id="Layer_1" xmlns="http://www.w3.org/2000/svg" xmlns:xlink="http://www.w3.org/1999/xlink" x="0px" y="0px"
	 viewBox="0 0 474.8 474.8" style="enable-background:new 0 0 474.8 474.8;" xml:space="preserve">
<style type="text/css">
	.st0{fill:#FFFFFF;}
	.st1{fill:url(#SVGID_1_);}
	.st2{fill:url(#SVGID_00000055668486165246605810000016185012718453451648_);}
	.st3{opacity:0.444;fill:url(#SVGID_00000072246935091718074800000015027387475361945791_);enable-background:new    ;}
</style>
<path class="st0" d="M179,227.2c0-14.6-4.2-22-12.5-22.4c-3.3-0.2-6.5,0.4-9.7,1.6c-2.5,0.9-4.2,1.8-5.1,2.7v34.8
	c5.3,3.3,10,4.9,14.1,4.6C174.7,247.8,179,240.7,179,227.2z M189.3,227.8c0,7.4-1.7,13.5-5.2,18.4c-3.9,5.5-9.3,8.4-16.2,8.5
	c-5.2,0.2-10.5-1.5-16.1-4.9v31.6l-8.9-3.2v-70.1c1.5-1.8,3.3-3.3,5.6-4.6c5.3-3.1,11.7-4.7,19.3-4.8l0.1,0.1
	c6.9-0.1,12.3,2.8,16,8.5C187.5,212.7,189.3,219.5,189.3,227.8z M243.7,248.5c0,9.9-1,16.8-3,20.6c-2,3.8-5.8,6.9-11.4,9.1
	c-4.6,1.8-9.5,2.8-14.8,2.9l-1.5-5.6c5.4-0.7,9.2-1.5,11.3-2.2c4.3-1.5,7.3-3.7,8.9-6.7c1.3-2.4,1.9-7.1,1.9-14v-2.3
	c-6.1,2.8-12.5,4.1-19.2,4.1c-4.4,0-8.3-1.4-11.6-4.1c-3.7-3-5.6-6.8-5.6-11.5v-37.1l8.9-3.1v37.3c0,4,1.3,7.1,3.9,9.2
	s5.9,3.2,10,3.1c4.1-0.1,8.5-1.7,13.1-4.8v-43.5h8.9L243.7,248.5L243.7,248.5z M278.5,254.2c-1,0.1-2,0.1-2.9,0.1
	c-5,0-9-1.2-11.8-3.6c-2.8-2.4-4.2-5.7-4.2-10v-35.1h-6.1v-5.6h6.1v-14.9l8.9-3.2v18.1h10v5.6h-10v34.8c0,3.3,0.9,5.7,2.7,7.1
	c1.5,1.1,4,1.8,7.3,2L278.5,254.2L278.5,254.2z M332.4,253.5h-8.9v-34.4c0-3.5-0.8-6.5-2.4-9c-1.9-2.8-4.5-4.3-7.8-4.3
	c-4.1,0-9.2,2.2-15.3,6.5v41.2H289v-82.2l8.9-2.8v37.4c5.7-4.1,11.9-6.2,18.7-6.2c4.7,0,8.5,1.6,11.5,4.8c2.9,3.2,4.4,7.1,4.4,11.8
	L332.4,253.5L332.4,253.5L332.4,253.5z M379.8,225.8c0-5.6-1.1-10.2-3.2-13.9c-2.5-4.5-6.4-6.8-11.7-7c-9.8,0.6-14.6,7.6-14.6,21
	c0,6.2,1,11.3,3.1,15.4c2.6,5.3,6.5,7.8,11.8,7.8C374.9,248.9,379.8,241.2,379.8,225.8L379.8,225.8z M389.5,225.8
	c0,8-2,14.6-6.1,19.9c-4.5,5.9-10.7,8.9-18.5,8.9c-7.8,0-13.9-3-18.3-8.9c-4-5.3-6-11.9-6-19.9c0-7.5,2.2-13.8,6.5-18.9
	c4.6-5.4,10.5-8.2,17.9-8.2c7.4,0,13.4,2.7,18.1,8.2C387.4,212,389.5,218.3,389.5,225.8L389.5,225.8z M440.6,253.5h-8.9v-36.3
	c0-4-1.2-7.1-3.6-9.3c-2.4-2.2-5.6-3.3-9.6-3.2c-4.2,0.1-8.3,1.5-12.1,4.1v44.8h-8.9v-45.9c5.1-3.7,9.8-6.2,14.2-7.3
	c4.1-1.1,7.7-1.6,10.7-1.6c2.1,0,4.1,0.2,6,0.6c3.5,0.8,6.3,2.3,8.5,4.5c2.4,2.4,3.7,5.4,3.7,8.8L440.6,253.5L440.6,253.5z"/>
<linearGradient id="SVGID_1_" gradientUnits="userSpaceOnUse" x1="-1610.4288" y1="381.459" x2="-1501.4128" y2="475.252" gradientTransform="matrix(0.5625 0 0 0.568 903.1851 -41.798)">
	<stop  offset="0" style="stop-color:#5A9FD4"/>
	<stop  offset="1" style="stop-color:#306998"/>
</linearGradient>
<path class="st1" d="M54.9,171.6c-4.6,0-9,0.4-12.8,1.1c-11.3,2-13.4,6.2-13.4,13.9v10.2h26.8v3.4H18.6c-7.8,0-14.6,4.7-16.8,13.6
	c-2.5,10.2-2.6,16.6,0,27.2c1.9,7.9,6.5,13.6,14.2,13.6h9.2v-12.2c0-8.9,7.7-16.7,16.7-16.7h26.8c7.5,0,13.4-6.1,13.4-13.6v-25.5
	c0-7.3-6.1-12.7-13.4-13.9C64.3,172,59.5,171.6,54.9,171.6z M40.4,179.9c2.8,0,5,2.3,5,5.1c0,2.8-2.3,5.1-5,5.1c-2.8,0-5-2.3-5-5.1
	C35.4,182.2,37.6,179.9,40.4,179.9z"/>
<linearGradient id="SVGID_00000090261712320805699590000012552909271136968102_" gradientUnits="userSpaceOnUse" x1="-1459.2968" y1="532.0121" x2="-1498.2257" y2="476.9332" gradientTransform="matrix(0.5625 0 0 0.568 903.1851 -41.798)">
	<stop  offset="0" style="stop-color:#FFD43B"/>
	<stop  offset="1" style="stop-color:#FFE873"/>
</linearGradient>
<path style="fill:url(#SVGID_00000090261712320805699590000012552909271136968102_);" d="M85.6,200.3v11.9c0,9.2-7.8,17-16.8,17
	H42.1c-7.3,0-13.4,6.3-13.4,13.6v25.5c0,7.3,6.3,11.5,13.4,13.6c8.5,2.5,16.6,2.9,26.8,0c6.8-2,13.4-5.9,13.4-13.6v-10.2H55.5v-3.4
	h40.2c7.8,0,10.7-5.4,13.4-13.6c2.8-8.4,2.7-16.5,0-27.2c-1.9-7.8-5.6-13.6-13.4-13.6H85.6z M70.6,264.9c2.8,0,5,2.3,5,5.1
	c0,2.8-2.3,5.1-5,5.1c-2.8,0-5-2.3-5-5.1C65.5,267.2,67.8,264.9,70.6,264.9z"/>
<path class="st0" d="M458,192.1h1.6v-9.8h3.7v-1.2h-9v1.2h3.7L458,192.1 M464.6,192.1h1.3v-8.9l2.9,8.9h1.5l3-8.9v8.9h1.5v-11h-1.9
	l-3.3,9.4l-2.8-9.4h-2.2L464.6,192.1"/>
<radialGradient id="SVGID_00000165928885696175510080000000128828799723157892_" cx="-4473.4492" cy="578.1871" r="29.0313" gradientTransform="matrix(0 -0.2399 1.0547 0 -553.9975 -774.0046)" gradientUnits="userSpaceOnUse">
	<stop  offset="0" style="stop-color:#B8B8B8;stop-opacity:0.498"/>
	<stop  offset="1" style="stop-color:#7F7F7F;stop-opacity:0"/>
</radialGradient>
<path style="opacity:0.444;fill:url(#SVGID_00000165928885696175510080000000128828799723157892_);enable-background:new    ;" d="
	M91.7,299.3c0,3.8-16.1,7-35.9,7c-19.8,0-35.9-3.1-35.9-7c0-3.8,16.1-7,35.9-7C75.7,292.4,91.7,295.5,91.7,299.3z"/>
</svg>
