<?xml version="1.0" encoding="utf-8"?>
<!-- Generator: Adobe Illustrator 26.0.2, SVG Export Plug-In . SVG Version: 6.00 Build 0)  -->
<svg version="1.1" id="Layer_1" xmlns="http://www.w3.org/2000/svg" xmlns:xlink="http://www.w3.org/1999/xlink" x="0px" y="0px"
	 viewBox="0 0 54 54" style="enable-background:new 0 0 54 54;" xml:space="preserve">
<style type="text/css">
	.st0{clip-path:url(#SVGID_00000067923743548828363640000012068328649632473501_);}
	.st1{fill-rule:evenodd;clip-rule:evenodd;fill:#38BDF8;}
</style>
<g>
	<defs>
		<rect id="SVGID_1_" y="10.5" width="54" height="32.4"/>
	</defs>
	<clipPath id="SVGID_00000001638818849145787100000016573245123468773525_">
		<use xlink:href="#SVGID_1_"  style="overflow:visible;"/>
	</clipPath>
	<g style="clip-path:url(#SVGID_00000001638818849145787100000016573245123468773525_);">
		<path class="st1" d="M27,10.5c-7.2,0-11.7,3.6-13.5,10.8c2.7-3.6,5.9-4.9,9.5-4c2.1,0.5,3.5,2,5.1,3.7c2.6,2.7,5.7,5.8,12.4,5.8
			c7.2,0,11.7-3.6,13.5-10.8c-2.7,3.6-5.8,4.9-9.5,4.1c-2.1-0.5-3.5-2-5.1-3.7C36.8,13.6,33.7,10.5,27,10.5z M13.5,26.7
			C6.3,26.7,1.8,30.3,0,37.5c2.7-3.6,5.8-5,9.4-4c2.1,0.5,3.5,2,5.1,3.7c2.6,2.7,5.7,5.8,12.4,5.8c7.2,0,11.7-3.6,13.5-10.8
			c-2.7,3.6-5.8,5-9.5,4c-2.1-0.5-3.5-2-5.1-3.7C23.3,29.8,20.2,26.7,13.5,26.7z"/>
	</g>
</g>
</svg>
