<?xml version="1.0" encoding="utf-8"?>
<!-- Generator: Adobe Illustrator 26.0.2, SVG Export Plug-In . SVG Version: 6.00 Build 0)  -->
<svg version="1.1" id="Layer_1" xmlns="http://www.w3.org/2000/svg" xmlns:xlink="http://www.w3.org/1999/xlink" x="0px" y="0px"
	 viewBox="0 0 361 361" style="enable-background:new 0 0 361 361;" xml:space="preserve">
<style type="text/css">
	.st0{fill:#264DE4;}
	.st1{fill:#2965F1;}
	.st2{fill:#EBEBEB;}
	.st3{fill:#FFFFFF;}
</style>
<g>
	<path class="st0" d="M180.3,360.1l-129.7-36L21.7,0h317.5l-28.9,324L180.3,360.1L180.3,360.1z"/>
	<path class="st1" d="M285.6,303.4l24.7-276.9H180.5v306L285.6,303.4L285.6,303.4z"/>
	<path class="st2" d="M88,146.7l3.6,39.7h88.9v-39.7H88z M80.8,66.2l3.6,39.7h96.1V66.2C180.5,66.2,80.8,66.2,80.8,66.2z
		 M180.5,249.9l-0.2,0l-44.3-12l-2.8-31.7H93.3l5.6,62.4l81.4,22.6l0.2,0V249.9z"/>
	<path class="st3" d="M272.8,146.7l7.2-80.5h-99.6V106h56l-3.6,40.7h-52.4v39.7h48.9l-4.6,51.6l-44.3,12v41.4l81.5-22.6l0.6-6.7
		l9.3-104.6L272.8,146.7L272.8,146.7z"/>
</g>
</svg>
