<?xml version="1.0" encoding="utf-8"?>
<!-- Generator: Adobe Illustrator 26.0.2, SVG Export Plug-In . SVG Version: 6.00 Build 0)  -->
<svg version="1.1" id="Layer_1" xmlns="http://www.w3.org/2000/svg" xmlns:xlink="http://www.w3.org/1999/xlink" x="0px" y="0px"
	 viewBox="0 0 512 512" style="enable-background:new 0 0 512 512;" xml:space="preserve">
<style type="text/css">
	.st0{fill:#FFFFFF;}
</style>
<g>
	<path class="st0" d="M256,209.7c-25.6,0-46.3,20.7-46.3,46.3c0,25.6,20.7,46.3,46.3,46.3c24,0,43.7-18.2,46.1-41.6
		c0.2-1.6,0.2-3.1,0.2-4.7C302.3,230.4,281.6,209.7,256,209.7z"/>
	<path class="st0" d="M352,152.2c-0.7-0.6-1.4-1.2-2.2-1.7c-1.5-1.1-3-2.2-4.6-3.1c-1.6-1-3.2-1.9-4.9-2.7
		c-7.6-3.7-16.1-5.7-25.1-5.7h-59.8h-58.7c-31.9,0-57.8,25.9-57.8,57.8v118.5c0,31.9,25.9,57.8,57.8,57.8h58.7h59.8
		c31.9,0,57.8-25.9,57.8-57.8V196.8c0-16-6.5-30.4-16.9-40.9C354.8,154.6,353.4,153.3,352,152.2z M259.9,331.7
		c-1.3,0.1-2.6,0.1-3.9,0.1c-0.2,0-0.4,0-0.6,0v0c-41.5-0.3-75.2-34.2-75.2-75.8c0-41.6,33.7-75.5,75.2-75.8v0c0.2,0,0.4,0,0.6,0
		c11.8,0,22.9,2.7,32.8,7.5c2.2,1.1,4.4,2.2,6.4,3.5c1,0.6,2.1,1.3,3.1,2c7.1,4.8,13.3,10.7,18.4,17.5c1.5,1.9,2.8,4,4.1,6
		c3.2,5.2,5.7,10.8,7.6,16.8c0.7,2.4,1.4,4.8,1.9,7.3c0.5,2.5,0.9,5,1.2,7.5s0.4,5.1,0.4,7.7C331.8,296.5,299.9,329.7,259.9,331.7z
		 M331.9,198.9c-10,0-18.2-8.1-18.2-18.2c0-10,8.1-18.2,18.2-18.2c10,0,18.2,8.1,18.2,18.2C350.1,190.8,342,198.9,331.9,198.9z"/>
	<path class="st0" d="M256,0C114.6,0,0,114.6,0,256s114.6,256,256,256s256-114.6,256-256S397.4,0,256,0z M402.5,315.2
		c0,45.1-34.4,82.4-78.4,86.9c-2.9,0.3-5.9,0.5-8.9,0.5h-59.8h-58.7c-48.1,0-87.3-39.2-87.3-87.3V196.8c0-48.1,39.2-87.3,87.3-87.3
		h58.7h59.8h0c23.3,0,44.5,9.2,60.2,24.1c1,1,2,2,3,3c14.9,15.7,24.1,36.9,24.1,60.2V315.2z"/>
</g>
</svg>
