<?xml version="1.0" encoding="utf-8"?>
<!-- Generator: Adobe Illustrator 26.0.2, SVG Export Plug-In . SVG Version: 6.00 Build 0)  -->
<svg version="1.1" id="Layer_1" xmlns="http://www.w3.org/2000/svg" xmlns:xlink="http://www.w3.org/1999/xlink" x="0px" y="0px"
	 viewBox="0 0 500 500" style="enable-background:new 0 0 500 500;" xml:space="preserve">
<style type="text/css">
	.st0{fill:#F5DE19;}
</style>
<path class="st0" d="M0,0v500h500V0H0z M272.3,390c0,48.6-28.6,70.8-70.2,70.8c-30.1,1.6-58.1-15.4-70.5-42.9l38.2-23.2
	c7.4,13.1,14.1,24.2,30.2,24.2c15.4,0,25.2-6,25.2-29.5V229.6h47V390z M383.4,460.9c-35.5,2.3-69.1-16.6-85.6-48.1l38.1-22.2
	c8.7,17.7,26.7,28.8,46.4,28.6c19.5,0,31.9-9.7,31.9-23.2c0-16.1-12.8-21.8-34.2-31.2l-11.8-5c-33.9-14.4-56.4-32.5-56.4-70.8
	c0-35.2,26.8-62.1,68.8-62.1c27.8-2,54.1,12.8,66.8,37.6L410.7,288c-4.9-12.3-16.9-20.3-30.2-20.1c-11.2-1.1-21.3,7.1-22.4,18.3
	c-0.1,0.6-0.1,1.2-0.1,1.8c0,14.1,8.7,19.8,28.9,28.6l11.8,5c39.9,17.1,62.5,34.6,62.5,73.8C461.2,437.7,428,460.9,383.4,460.9z"/>
</svg>
