<?xml version="1.0" encoding="utf-8"?>
<!-- Generator: Adobe Illustrator 26.0.2, SVG Export Plug-In . SVG Version: 6.00 Build 0)  -->
<svg version="1.1" id="Layer_1" xmlns="http://www.w3.org/2000/svg" xmlns:xlink="http://www.w3.org/1999/xlink" x="0px" y="0px"
	 viewBox="0 0 1584 1584" style="enable-background:new 0 0 1584 1584;" xml:space="preserve">
<style type="text/css">
	.st0{fill:#FFFFFF;}
</style>
<g>
	<path class="st0" d="M143.5,600.3c6.4,12.3,15.6,22.5,24.2,33.1c23.3,28.5,42.4,59.3,51.6,95.4c15.1,59.3-1.1,110.9-39.2,157
		c-7.2,8.7-15,16.8-23.9,23.7c-3.7,2.9-5,6.1-5.4,10.4c-0.8,10.3-2.2,20.5-2.8,30.8c-0.3,4.8-3.1,4-6,4.1c-3.1,0.1-5.7,0.4-6-4.2
		c-0.6-9.8-2.1-19.6-2.7-29.5c-0.3-5.4-2.5-9-6.6-12.6c-30.5-26.6-52.1-58.9-62.7-98.3c-1.8-6.5-1.6-13.5-4.8-19.6
		c0-12.9,0-25.7,0-38.6c3.3-6.6,3.1-14,4.9-21c9.5-36.9,28.5-68.6,52.4-97.7c8.6-10.5,17.7-20.8,24.1-33
		C141.6,600.3,142.6,600.3,143.5,600.3z M141,740.7c-1.4,29.6-2.8,57.8-4.1,86c-1.1,23.8-2,47.7-3.1,71.5c-0.3,5.9,3.8,9.4,7.9,10.8
		c3.2,1.1,5.8-3.6,8-6.5c1.6-2.2,0.7-4.9,0.6-7.4c-2.2-48.6-4.4-97.1-6.6-145.7C143.5,746.6,142.4,744.3,141,740.7z M142.4,726.6
		c-0.3,3.8-2.9,8,0.9,13.3C143,734.4,142.7,730.5,142.4,726.6z"/>
	<path class="st0" d="M925.8,983.7c-2.1-2.5-5.3-2-8-2.9c-12-3.6-22.6-9.2-29.1-20.4c-7.9-13.8-4.7-31.6,7.6-43.5
		c1.5-1.4,3-2.7,4.5-4.1c-1.5-1.7-3.2-0.8-4.6-1.1c-9-1.8-12.5-10.1-7.3-17.7c5.5-7.9,11.3-15.6,17.1-23.3c1.8-2.3,1.7-3.5-0.6-5.5
		c-16.8-13.8-22.7-31.5-16.7-52.3c6.2-21.3,22.1-32.5,42.9-37.4c9-2.1,18.3-2.6,27.3-0.2c16.8,4.5,33.8,1.9,50.7,2.6
		c6.3,0.2,10.2,6.7,7.2,12.2c-1.2,2.1-2.8,0.8-4.2,0.7c-7.5-0.7-15-1.4-24.2-2.3c8.8,8.7,14,18,16.2,28.7
		c5.5,27.3-12.7,53.6-41.7,60.2c-12.2,2.8-24.5,3.6-36.6-1c-1.7-0.7-3.4-1.2-4.9,0.8c-4,5.5-8.1,10.9-12.2,16.4c3,2,5.6,1.2,8,1.2
		c18.4,0.2,36.8,0.3,55.2,0.4c5.3,0,10.5,1.2,15.5,2.7c31.5,9.7,33.8,39.7,19.5,59.2c-11.5,15.6-28.5,21.7-46.7,25.1
		c-1.5,0.3-3.3-0.5-4.3,1.4C946.1,983.7,936,983.7,925.8,983.7z M911.5,826.6c-0.2,13.7,3.9,25.3,16.2,32.8
		c16,9.8,36.7,5.4,46.8-9.8c11.2-16.7,7.5-43.1-7.9-54.1c-11.4-8.2-23.8-9.2-36.3-3C916.2,799.6,911.3,811.8,911.5,826.6z
		 M948.5,911.8c0,0,0-0.1,0-0.2c-6.4,0-12.9,0-19.3,0c-2.3,0-4.5,0-6.6,1.4c-10,6.6-15.2,15.6-14.9,27.7
		c0.3,11.6,5.7,19.9,16.3,24.1c16.8,6.8,33.6,6.3,50-1.9c5-2.5,9.2-6.2,12.1-11c5.4-9,6.7-18.6,2.1-28.3
		c-4.4-9.2-12.8-11.9-22.4-11.9C960,911.7,954.2,911.8,948.5,911.8z"/>
	<path class="st0" d="M418.8,872.7c11.6-28.1,22.6-55,33.7-81.8c8.6-21,17.4-41.9,25.8-63c1.5-3.8,3.5-5,7.5-4.9
		c12.2,0.3,24.4,0.2,36.6,0c3.4,0,5,0.7,4.8,4.5c-0.2,3.1,0.2,5.5-4.4,5.8c-10.6,0.5-12.3,2.6-12.2,12.9
		c0.1,47.1,0.1,94.2,0.2,141.3c0,10.7,1.8,12.8,12.6,13.3c3.9,0.2,3.8,2,3.8,4.8c-0.1,2.8,0.6,5.4-3.9,5.3
		c-15.6-0.2-31.3-0.2-46.9,0c-3.6,0-4.2-1.7-4-4.7c0.1-2.8-0.5-5.5,4-5.4c6,0.2,9.7-2.8,9.7-9.1c0-44.7,0-89.5,0-134.2
		c-0.6-0.1-1.3-0.3-1.9-0.4c-3,6.9-6.1,13.9-9,20.9c-18,43.1-36.1,86.3-54.1,129.4c-1.4,3.4-2.5,7.2-7.2,7.2c-4.7,0-5.6-4-7-7.4
		c-20.5-48.8-41-97.6-61.5-146.5c-1-2.5-2.1-4.9-4.3-7.3c0,2.1,0,4.2,0,6.4c0,42.8,0,85.5,0,128.2c0,9.3,1.4,11.3,10.5,12.7
		c4.3,0.6,2.8,3.3,3,5.5c0.2,2.3,0.3,4.6-3.3,4.6c-13.3-0.1-26.7-0.1-40,0c-4.1,0-3.5-2.5-3.5-5c0-2.4-0.8-4.8,3.4-5.1
		c11.9-0.9,13-2.4,13.1-14.3c0.4-46.9,0.9-93.7,1.3-140.6c0.1-10.2-2-12.5-12.4-12.9c-4.2-0.1-4.1-2.2-4.2-5.2c-0.1-3.2,0.2-5,4.3-5
		c13.3,0.2,26.7,0.3,40,0c4.2-0.1,4.7,2.7,5.8,5.3c12.8,30.9,25.5,61.9,38.3,92.8C404.3,837.8,411.2,854.5,418.8,872.7z"/>
	<path class="st0" d="M1483.1,811.1c5.3,2,9.6,3.5,13.8,5.2c33.6,12.7,33.8,56.1,15.8,74.8c-13.5,14-30.4,19.9-48.9,20.5
		c-28,1-56.1,0.3-84.1,0.4c-3.4,0-4.4-1.2-4.2-4.4c0.2-2.9-0.7-5.6,4.2-5.8c9.2-0.3,12.4-4.2,12.4-13.6c0-47.3,0-94.6,0-141.9
		c0-9.1-2.9-12.6-11.9-13.3c-4.1-0.3-4.4-2.1-4.2-5.2c0.1-2.6-0.2-5,3.8-4.9c28.9,0.8,57.9-2,86.7,1.6c23.2,2.9,39.6,18,43.5,38.1
		c3.3,17.4-2.9,31-16.6,41.6C1490.3,806.6,1486.9,808.6,1483.1,811.1z M1417.3,855.6c0,9.9-0.1,19.8,0,29.6
		c0.1,7.8,3.9,12,11.1,12.1c11.2,0.1,22.6,0.4,33.8-0.4c21.1-1.5,36.4-18.8,35.9-39.7c-0.6-21-15.1-35.4-37.3-36.1
		c-12.9-0.4-25.7,0-38.6-0.3c-4.1-0.1-5,1.4-4.9,5.2C1417.4,835.8,1417.3,845.7,1417.3,855.6z M1417.4,775c0,8.9,0.1,17.9-0.1,26.8
		c-0.1,3.3,0.8,5.1,4.6,5c11.7-0.5,23.4,0.8,35.1-0.8c16.6-2.2,25.7-12.9,27.1-31.8c1.2-16.5-7.6-30.2-22.1-34.7
		c-10.5-3.2-21.4-2.1-32.1-2.2c-8.1,0-12.3,4.1-12.4,12.3C1417.3,758,1417.4,766.5,1417.4,775z"/>
	<path class="st0" d="M1215.6,817.8c0-23.4,0-46.9,0-70.3c0-10.3-2.7-13.6-13-14.5c-4.1-0.3-3.6-2.5-3.5-5c0.1-2.4-0.9-5.2,3.4-5.1
		c25.7,0.7,51.6-2,77.2,1.3c44.8,5.9,75.7,40.1,78,85.3c1.7,32.7-6.9,61.5-33.5,82.7c-16.1,12.9-35,19.1-55.6,19.5
		c-21.4,0.4-42.8,0.1-64.2,0.1c-3.2,0-5.7,0.2-5.5-4.5c0.2-3.8,0.6-5.6,5.1-5.7c7.9-0.2,11.5-4.4,11.5-12.4
		C1215.6,865.6,1215.6,841.7,1215.6,817.8z M1240.4,817c0,22.5,0,45,0,67.5c0,9.1,3.7,12.8,13,12.9c4.6,0,9.2,0.1,13.8-0.2
		c27.8-1.6,47.2-15.5,57.2-41.2c10-25.8,9.7-52.3-0.2-78c-7.1-18.4-20.2-31.5-39.5-37.6c-10.2-3.3-20.8-3.5-31.4-3.2
		c-9.1,0.2-12.9,3.9-12.9,13.1C1240.4,772.4,1240.4,794.7,1240.4,817z"/>
	<path class="st0" d="M752.4,799c13.5-18.6,30.6-25.9,51.7-24.9c25.4,1.3,41.7,18.1,41.8,43.5c0.1,23.7,0,47.3,0,71
		c0,9.2,1.2,10.9,10.3,11.7c4.1,0.4,3.4,2.8,3.4,5.2c0,2.4,0.8,5.1-3.4,5.1c-14.5-0.2-29-0.1-43.4,0c-3.7,0-4.1-1.8-4-4.7
		c0.1-2.7-0.7-5.2,3.8-5.6c9-0.7,10.2-2.2,10.2-11.1c0-23.2,0.2-46.4,0-69.6c-0.2-17.6-8.8-28.6-23-30.3
		c-18.2-2.3-34.5,6.9-41.7,23.7c-3,7-4.8,14.3-4.7,22c0.1,18.1,0,36.3,0,54.4c0,8.6,1.4,10.4,10.3,11c4.8,0.3,3.3,3.2,3.6,5.6
		c0.4,3-0.4,4.5-4,4.5c-14.2-0.2-28.5-0.2-42.8,0c-3.5,0-4.4-1.3-4.1-4.5c0.2-2.6-0.8-5.2,3.8-5.6c9.1-0.8,10.4-2.5,10.4-11.7
		c0-26.4,0-52.8,0-79.2c0-10.3-0.6-11.1-11-12.2c-5.8-0.6-4-6-2.7-6.8c8.5-5,15.9-12.7,26.8-12.7c3.2,0,3.7,1.9,4.2,4.3
		C749.2,787.3,750.6,792.3,752.4,799z"/>
	<path class="st0" d="M689.9,844.9c-0.1,40.5-29.8,70-70.2,69.8c-40.2-0.2-69.4-30-69.2-70.8c0.1-40.8,29.9-70.1,70.8-69.9
		C660.9,774.3,690,804.4,689.9,844.9z M665.4,844.7c0-6.4-0.4-12.8-1.8-19.1c-4.6-20.8-19.9-35.3-38.6-36.5
		c-22.6-1.4-39.4,9-46.2,30c-6,18.7-6.1,37.6,2.1,55.7c6.6,14.6,18,23.5,34.4,24.9c17.5,1.5,31.5-4.4,41.2-19.5
		C663.5,869.4,665.4,857.3,665.4,844.7z"/>
	<path class="st0" d="M1177,844.8c-0.1,40.6-29.6,70-70.1,69.9c-40.1,0-69.4-30-69.3-70.8c0.1-40.8,29.8-70.2,70.8-69.9
		C1147.9,774.3,1177.1,804.4,1177,844.8z M1152.7,844.9c-0.4-4.8-0.4-9.7-1.2-14.4c-0.8-4.5-2-9-3.6-13.2
		c-6.7-17.8-20.7-27.8-39.1-28.3c-19.2-0.5-34.3,8.6-41.3,26.1c-7.9,19.8-8,40,0.5,59.6c6.4,14.7,17.9,23.6,34.3,25
		c17.7,1.5,31.9-4.5,41.6-19.9C1150.6,869.1,1152.4,857.2,1152.7,844.9z"/>
</g>
</svg>
